<?xml version="1.0" encoding="utf-8"?>
<!-- Generator: Adobe Illustrator 23.1.1, SVG Export Plug-In . SVG Version: 6.00 Build 0)  -->
<svg version="1.1" id="Layer_1" xmlns="http://www.w3.org/2000/svg" xmlns:xlink="http://www.w3.org/1999/xlink" x="0px" y="0px"
	 viewBox="0 0 20 20" style="enable-background:new 0 0 20 20;" xml:space="preserve">
<style type="text/css">
	.st0{fill:#FF0060;fill-opacity:0;}
	.st1{fill:#CCCCCC;stroke:#CCCCCC;stroke-width:5.000000e-02;stroke-miterlimit:10;}
</style>
<g id="Flags" transform="translate(-590 -1119)">
	<rect id="Flag-area" x="590" y="1119" class="st0" width="20" height="20"/>
	<path id="Globe" class="st1" d="M600,1121c-4.4,0-8,3.6-8,8c0,4.4,3.6,8,8,8s8-3.6,8-8C608,1124.6,604.4,1121,600,1121z
		 M605.8,1128.5c-0.9,0.2-1.8,0.3-2.6,0.4c0-1.9-0.4-3.7-1.3-5.4C604.1,1124.2,605.6,1126.2,605.8,1128.5z M600,1134.9
		c-0.8,0-1.9-1.9-2.1-4.8c0.7,0,1.5,0,2.1,0s1.3,0,2.1,0C601.9,1133,600.8,1134.9,600,1134.9L600,1134.9z M600,1129
		c-0.8,0-1.5,0-2.1-0.1c0-3.5,1.3-5.8,2.1-5.8s2.1,2.3,2.1,5.8C601.5,1129,600.8,1129,600,1129L600,1129z M598.1,1123.5
		c-0.9,1.7-1.3,3.5-1.3,5.4c-0.9-0.1-1.8-0.2-2.6-0.4C594.4,1126.2,595.9,1124.2,598.1,1123.5L598.1,1123.5z M594.2,1129.6
		c0.9,0.2,1.8,0.3,2.7,0.4c0.1,1.6,0.5,3.2,1.2,4.6C595.9,1133.8,594.4,1131.9,594.2,1129.6L594.2,1129.6z M601.9,1134.5
		c0.8-1.4,1.2-3,1.2-4.6c0.9-0.1,1.8-0.2,2.7-0.4C605.6,1131.9,604.1,1133.8,601.9,1134.5z"/>
</g>
</svg>
